<?xml version="1.0" encoding="UTF-8"?>
<svg id="b" data-name="Layer 2" xmlns="http://www.w3.org/2000/svg" viewBox="0 0 273.97 174.81">
  <g id="c" data-name="Layer 1">
    <path d="M.68,124.29c6.12-34.61,44.4-51.04,77.96-51.04,9.96,0,19.93,1.05,28.32,3.32v-.52c2.1-12.24-5.42-21.5-22.9-21.5s-32.69,9.79-41.25,16.61l-26.57-38.28C29.7,20.1,63.26,0,99.8,0c20.8,0,37.58,6.47,47.37,20.8C163.08,7.69,182.66,0,204.16,0c44.75,0,76.74,31.99,68.52,78.49-1.22,6.82-3.32,13.98-6.47,21.5h-102.26c-1.05,16.26,11.71,23.07,26.05,23.07s27.79-6.99,37.23-16.61l31.64,33.91c-10.31,13.11-41.95,34.44-81.81,34.44-24.47,0-43.53-9.09-55.59-24.47-15.56,15.03-36.18,24.47-62.06,24.47-40.38,0-63.8-20.98-58.73-50.52ZM75.68,130.06c12.76,0,23.42-8.92,25.52-20.98-4.2-1.75-10.66-2.8-16.43-2.8-10.84,0-20.28,4.54-21.68,12.59-1.22,6.82,4.37,11.19,12.59,11.19ZM213.25,69.57c1.92-10.84-5.59-20.63-17.66-20.63s-23.25,9.61-26.22,20.63h43.88Z" style="fill: #231f20; stroke-width: 0px;"/>
  </g>
</svg>