<?xml version="1.0" encoding="UTF-8"?>
<svg id="artwork" xmlns="http://www.w3.org/2000/svg" version="1.1" viewBox="0 0 150 50">
  <!-- Generator: Adobe Illustrator 29.0.1, SVG Export Plug-In . SVG Version: 2.1.0 Build 192)  -->
  <defs>
    <style>
      .st0 {
        fill: #4285f4;
      }

      .st1 {
        fill: #a6a6a6;
      }

      .st2 {
        fill: #34a853;
      }

      .st3 {
        fill: #fbbc04;
      }

      .st4 {
        fill: #fff;
      }

      .st5 {
        fill: #ea4335;
      }
    </style>
  </defs>
  <g>
    <path d="M144.44,50H5.56C2.5,50,0,47.19,0,43.75V6.25C0,2.81,2.5,0,5.56,0h138.89c3.06,0,5.56,2.81,5.56,6.25v37.5c0,3.44-2.5,6.25-5.56,6.25Z"/>
    <path class="st1" d="M144.44,1c2.57,0,4.67,2.36,4.67,5.25v37.5c0,2.89-2.09,5.25-4.67,5.25H5.56c-2.57,0-4.67-2.36-4.67-5.25V6.25C.89,3.36,2.98,1,5.56,1h138.89M144.44,0H5.56C2.5,0,0,2.81,0,6.25v37.5C0,47.19,2.5,50,5.56,50h138.89c3.06,0,5.56-2.81,5.56-6.25V6.25c0-3.44-2.5-6.25-5.56-6.25h0Z"/>
    <path class="st4" d="M75.71,26.95c-2.61,0-4.74,1.99-4.74,4.73s2.13,4.73,4.74,4.73,4.74-2,4.74-4.73-2.13-4.73-4.74-4.73ZM75.71,34.54c-1.43,0-2.67-1.18-2.67-2.86s1.24-2.86,2.67-2.86,2.67,1.16,2.67,2.86-1.24,2.86-2.67,2.86ZM65.36,26.95c-2.61,0-4.74,1.99-4.74,4.73s2.13,4.73,4.74,4.73,4.74-2,4.74-4.73-2.13-4.73-4.74-4.73ZM65.36,34.54c-1.43,0-2.67-1.18-2.67-2.86s1.24-2.86,2.67-2.86,2.67,1.16,2.67,2.86-1.24,2.86-2.67,2.86ZM53.05,28.4v2h4.8c-.14,1.13-.52,1.95-1.09,2.52-.7.7-1.79,1.47-3.71,1.47-2.95,0-5.26-2.38-5.26-5.33s2.31-5.33,5.26-5.33c1.59,0,2.76.63,3.62,1.43l1.41-1.41c-1.2-1.15-2.79-2.02-5.03-2.02-4.05,0-7.45,3.29-7.45,7.34s3.4,7.34,7.45,7.34c2.18,0,3.83-.72,5.12-2.06,1.32-1.32,1.74-3.19,1.74-4.69,0-.47-.04-.9-.11-1.25h-6.75ZM103.39,29.95c-.39-1.06-1.59-3.01-4.05-3.01s-4.46,1.92-4.46,4.73c0,2.65,2,4.73,4.69,4.73,2.17,0,3.42-1.32,3.94-2.09l-1.61-1.07c-.54.79-1.27,1.31-2.33,1.31s-1.81-.48-2.29-1.43l6.32-2.61-.21-.54ZM96.95,31.53c-.05-1.83,1.41-2.76,2.47-2.76.82,0,1.52.41,1.75,1l-4.22,1.75ZM91.81,36.11h2.08v-13.89h-2.08v13.89ZM88.41,28h-.07c-.47-.55-1.36-1.06-2.49-1.06-2.36,0-4.53,2.08-4.53,4.74s2.17,4.71,4.53,4.71c1.13,0,2.02-.5,2.49-1.07h.07v.68c0,1.81-.97,2.77-2.52,2.77-1.27,0-2.06-.91-2.38-1.68l-1.81.75c.52,1.25,1.9,2.79,4.19,2.79,2.43,0,4.49-1.43,4.49-4.92v-8.48h-1.97v.77ZM86.03,34.54c-1.43,0-2.63-1.2-2.63-2.85s1.2-2.88,2.63-2.88,2.52,1.22,2.52,2.88-1.11,2.85-2.52,2.85ZM113.12,22.22h-4.97v13.89h2.07v-5.26h2.9c2.3,0,4.56-1.66,4.56-4.31s-2.26-4.31-4.56-4.31ZM113.17,28.92h-2.95v-4.76h2.95c1.55,0,2.43,1.28,2.43,2.38s-.88,2.38-2.43,2.38ZM125.98,26.92c-1.5,0-3.06.66-3.7,2.13l1.84.77c.39-.77,1.13-1.02,1.89-1.02,1.07,0,2.16.64,2.18,1.79v.14c-.38-.21-1.18-.54-2.16-.54-1.98,0-4,1.09-4,3.13,0,1.86,1.63,3.06,3.45,3.06,1.39,0,2.16-.63,2.64-1.36h.07v1.07h2v-5.33c0-2.47-1.84-3.84-4.22-3.84ZM125.73,34.53c-.68,0-1.63-.34-1.63-1.18,0-1.07,1.18-1.48,2.2-1.48.91,0,1.34.2,1.89.46-.16,1.29-1.27,2.2-2.47,2.2ZM137.49,27.22l-2.38,6.02h-.07l-2.47-6.02h-2.23l3.7,8.42-2.11,4.68h2.16l5.7-13.1h-2.31ZM118.82,36.11h2.07v-13.89h-2.07v13.89Z"/>
    <g>
      <path class="st5" d="M23.02,24.36l-11.83,12.56s0,0,0,0c.36,1.36,1.61,2.37,3.09,2.37.59,0,1.15-.16,1.62-.44l.04-.02,13.32-7.68-6.23-6.78Z"/>
      <path class="st3" d="M34.99,22.22h-.01s-5.75-3.34-5.75-3.34l-6.48,5.76,6.5,6.5,5.72-3.3c1-.54,1.68-1.6,1.68-2.82s-.67-2.26-1.66-2.81Z"/>
      <path class="st0" d="M11.19,13.09c-.07.26-.11.54-.11.82v22.19c0,.28.04.56.11.82l12.24-12.23-12.24-11.6Z"/>
      <path class="st2" d="M23.11,25l6.12-6.12-13.3-7.71c-.48-.29-1.05-.46-1.65-.46-1.48,0-2.72,1.01-3.09,2.37,0,0,0,0,0,0l11.92,11.92Z"/>
    </g>
  </g>
  <g>
    <path class="st4" d="M49.29,11.9h.97v2.58h2.89v-2.58h.97v6.23h-.97v-2.72h-2.89v2.72h-.97v-6.23Z"/>
    <path class="st4" d="M55.72,11.9h3.78v.93h-2.81v1.72h2.53v.92h-2.53v1.72h2.81v.93h-3.78v-6.23Z"/>
    <path class="st4" d="M60.86,11.9h1.16l2.78,4.53h.05l-.05-1.2v-3.33h.97v6.23h-1.02l-2.92-4.77h-.05l.05,1.2v3.57h-.96v-6.23Z"/>
    <path class="st4" d="M68.51,12.84h-1.74v-.93h4.45v.93h-1.74v5.3h-.97v-5.3Z"/>
    <path class="st4" d="M74.2,11.9h.97v6.23h-.97v-6.23Z"/>
  </g>
</svg>