<?xml version="1.0" encoding="UTF-8"?>
<svg id="artwork" xmlns="http://www.w3.org/2000/svg" version="1.1" viewBox="0 0 150 50">
  <!-- Generator: Adobe Illustrator 29.0.1, SVG Export Plug-In . SVG Version: 2.1.0 Build 192)  -->
  <defs>
    <style>
      .st0 {
        fill: #4285f4;
      }

      .st1 {
        fill: #a6a6a6;
      }

      .st2 {
        fill: #34a853;
      }

      .st3 {
        fill: #fbbc04;
      }

      .st4 {
        fill: #fff;
      }

      .st5 {
        fill: #ea4335;
      }
    </style>
  </defs>
  <g>
    <path d="M144.44,50H5.56c-3.06,0-5.56-2.81-5.56-6.25V6.25C0,2.81,2.5,0,5.56,0h138.89c3.06,0,5.56,2.81,5.56,6.25v37.5c0,3.44-2.5,6.25-5.56,6.25Z"/>
    <path class="st1" d="M144.44,1c2.57,0,4.67,2.36,4.67,5.25v37.5c0,2.89-2.09,5.25-4.67,5.25H5.56c-2.57,0-4.67-2.36-4.67-5.25V6.25C.89,3.36,2.98,1,5.56,1h138.89M144.44,0H5.56C2.5,0,0,2.81,0,6.25v37.5c0,3.44,2.5,6.25,5.56,6.25h138.89c3.06,0,5.56-2.81,5.56-6.25V6.25c0-3.44-2.5-6.25-5.56-6.25h0Z"/>
    <path class="st4" d="M75.71,26.95c-2.61,0-4.74,1.99-4.74,4.73s2.13,4.73,4.74,4.73,4.74-2,4.74-4.73-2.13-4.73-4.74-4.73ZM75.71,34.54c-1.43,0-2.67-1.18-2.67-2.86s1.24-2.86,2.67-2.86,2.67,1.16,2.67,2.86-1.24,2.86-2.67,2.86ZM65.36,26.95c-2.61,0-4.74,1.99-4.74,4.73s2.13,4.73,4.74,4.73,4.74-2,4.74-4.73-2.13-4.73-4.74-4.73ZM65.36,34.54c-1.43,0-2.67-1.18-2.67-2.86s1.24-2.86,2.67-2.86,2.67,1.16,2.67,2.86-1.24,2.86-2.67,2.86ZM53.05,28.4v2h4.8c-.14,1.13-.52,1.95-1.09,2.52-.7.7-1.79,1.47-3.71,1.47-2.95,0-5.26-2.38-5.26-5.33s2.31-5.33,5.26-5.33c1.59,0,2.76.63,3.62,1.43l1.41-1.41c-1.2-1.15-2.79-2.02-5.03-2.02-4.05,0-7.45,3.29-7.45,7.34s3.4,7.34,7.45,7.34c2.18,0,3.83-.72,5.12-2.06,1.32-1.32,1.74-3.19,1.74-4.69,0-.47-.04-.9-.11-1.25h-6.75ZM103.39,29.95c-.39-1.06-1.59-3.01-4.05-3.01s-4.46,1.92-4.46,4.73c0,2.65,2,4.73,4.69,4.73,2.17,0,3.42-1.32,3.94-2.09l-1.61-1.07c-.54.79-1.27,1.31-2.33,1.31s-1.81-.48-2.29-1.43l6.32-2.61-.21-.54ZM96.95,31.53c-.05-1.83,1.41-2.76,2.47-2.76.82,0,1.52.41,1.75,1l-4.22,1.75ZM91.81,36.11h2.08v-13.89h-2.08v13.89ZM88.41,28h-.07c-.47-.55-1.36-1.06-2.49-1.06-2.36,0-4.53,2.08-4.53,4.74s2.17,4.71,4.53,4.71c1.13,0,2.02-.5,2.49-1.07h.07v.68c0,1.81-.97,2.77-2.52,2.77-1.27,0-2.06-.91-2.38-1.68l-1.81.75c.52,1.25,1.9,2.79,4.19,2.79,2.43,0,4.49-1.43,4.49-4.92v-8.48h-1.97v.77ZM86.03,34.54c-1.43,0-2.63-1.2-2.63-2.85s1.2-2.88,2.63-2.88,2.52,1.22,2.52,2.88-1.11,2.85-2.52,2.85ZM113.12,22.22h-4.97v13.89h2.07v-5.26h2.9c2.3,0,4.56-1.66,4.56-4.31s-2.26-4.31-4.56-4.31ZM113.17,28.92h-2.95v-4.76h2.95c1.55,0,2.43,1.28,2.43,2.38s-.88,2.38-2.43,2.38ZM125.98,26.92c-1.5,0-3.06.66-3.7,2.13l1.84.77c.39-.77,1.13-1.02,1.89-1.02,1.07,0,2.16.64,2.18,1.79v.14c-.38-.21-1.18-.54-2.16-.54-1.98,0-4,1.09-4,3.13,0,1.86,1.63,3.06,3.45,3.06,1.39,0,2.16-.63,2.64-1.36h.07v1.07h2v-5.33c0-2.47-1.84-3.84-4.22-3.84ZM125.73,34.53c-.68,0-1.63-.34-1.63-1.18,0-1.07,1.18-1.48,2.2-1.48.91,0,1.34.2,1.89.46-.16,1.29-1.27,2.2-2.47,2.2ZM137.49,27.22l-2.38,6.02h-.07l-2.47-6.02h-2.23l3.7,8.42-2.11,4.68h2.16l5.7-13.1h-2.31ZM118.82,36.11h2.07v-13.89h-2.07v13.89Z"/>
    <g>
      <path class="st5" d="M23.02,24.36l-11.83,12.56s0,0,0,0c.36,1.36,1.61,2.37,3.09,2.37.59,0,1.15-.16,1.62-.44l.04-.02,13.32-7.68-6.23-6.78Z"/>
      <path class="st3" d="M34.99,22.22h-.01s-5.75-3.34-5.75-3.34l-6.48,5.76,6.5,6.5,5.72-3.3c1-.54,1.68-1.6,1.68-2.82s-.67-2.26-1.66-2.81Z"/>
      <path class="st0" d="M11.19,13.09c-.07.26-.11.54-.11.82v22.19c0,.28.04.56.11.82l12.24-12.23-12.24-11.6Z"/>
      <path class="st2" d="M23.11,25l6.12-6.12-13.3-7.71c-.48-.29-1.05-.46-1.65-.46-1.48,0-2.72,1.01-3.09,2.37,0,0,0,0,0,0l11.92,11.92Z"/>
    </g>
  </g>
  <g>
    <path class="st4" d="M46.75,12.3h2.96v.58h-2.36v1.75h2.13v.57h-2.13v2.22h-.6v-5.13Z"/>
    <path class="st4" d="M51.69,17.19c-.4-.24-.72-.56-.95-.97-.23-.41-.34-.86-.34-1.35s.11-.94.34-1.35c.23-.41.54-.74.95-.97.4-.24.85-.36,1.34-.36s.94.12,1.34.36c.4.24.72.56.95.97.23.41.35.86.35,1.35s-.11.94-.34,1.35c-.23.41-.54.73-.95.97-.4.24-.85.36-1.34.36s-.94-.12-1.34-.36ZM54.04,16.7c.31-.18.55-.43.73-.74s.27-.68.27-1.08-.09-.77-.27-1.08c-.18-.32-.42-.57-.73-.74s-.65-.27-1.01-.27-.7.09-1.01.27c-.3.18-.55.43-.73.75-.18.32-.27.68-.27,1.08s.09.76.27,1.08c.18.32.42.57.73.75.31.18.64.27,1.01.27s.71-.09,1.01-.27Z"/>
    <path class="st4" d="M56.76,12.3h1.73c.28,0,.54.06.79.19.24.13.44.31.58.54.15.23.22.49.22.78,0,.24-.05.46-.16.67-.11.2-.25.38-.44.52-.19.14-.4.23-.63.28v.02s1.43,2.1,1.43,2.1v.03h-.72l-1.4-2.09h-.81v2.09h-.6v-5.13ZM58.45,14.77c.18,0,.34-.04.5-.12.15-.08.28-.19.37-.34.09-.15.14-.31.14-.49,0-.16-.04-.31-.12-.45-.08-.14-.19-.26-.34-.35-.15-.09-.31-.14-.5-.14h-1.14v1.89h1.1Z"/>
    <path class="st4" d="M61.18,12.3h.6v2.22h2.65v-2.22h.6v5.13h-.6v-2.33h-2.65v2.33h-.6v-5.13Z"/>
    <path class="st4" d="M70.45,17.43h-.67l-.52-1.41h-2.21l-.52,1.41h-.67l1.83-4.83c-.09-.07-.15-.16-.21-.26s-.08-.21-.08-.33c0-.2.07-.38.21-.52.14-.14.32-.21.52-.21s.38.07.53.21c.15.14.22.32.22.52,0,.11-.02.22-.08.32-.05.1-.12.19-.21.26l1.83,4.83ZM69.06,15.45l-.68-1.85-.21-.55h-.03l-.2.55-.68,1.85h1.8ZM67.95,11.79c-.06.06-.09.14-.09.22s.03.16.09.22c.06.06.13.09.22.09.09,0,.16-.03.22-.09.06-.06.09-.14.09-.22s-.03-.16-.09-.22c-.06-.06-.14-.09-.22-.09-.08,0-.15.03-.22.09Z"/>
    <path class="st4" d="M71.29,12.3h.75l2.57,4.08h.03l-.03-.99v-3.09h.61v5.13h-.63l-2.69-4.27h-.03l.03.99v3.29h-.6v-5.13Z"/>
    <path class="st4" d="M76.58,12.3h1.55c.52,0,.98.11,1.37.33.39.22.69.52.9.91.21.39.32.83.32,1.33s-.11.95-.32,1.33c-.21.39-.51.69-.9.91-.39.22-.85.33-1.37.33h-1.55v-5.13ZM78.13,16.85c.61,0,1.09-.17,1.44-.52.36-.35.53-.84.53-1.46s-.18-1.11-.53-1.46c-.35-.35-.84-.52-1.44-.52h-.94v3.97h.94Z"/>
    <path class="st4" d="M82.09,17.18c-.33-.24-.56-.58-.69-1.02l.58-.24c.08.31.23.56.45.75s.48.29.77.29.55-.08.75-.24.31-.38.31-.66c0-.24-.09-.44-.26-.59-.17-.15-.46-.3-.86-.43l-.32-.11c-.36-.13-.66-.3-.89-.51-.23-.21-.34-.5-.34-.87,0-.24.07-.47.2-.68.13-.21.32-.37.56-.5s.51-.19.8-.19.55.05.77.16.39.24.53.4.22.31.28.47l-.57.24c-.05-.18-.16-.34-.33-.48-.17-.14-.39-.21-.67-.21s-.49.07-.67.22-.28.33-.28.56c0,.2.08.36.24.49.16.13.4.24.72.35l.34.11c.43.16.77.35,1.02.59s.36.56.36.96c0,.33-.08.61-.25.83-.17.22-.38.39-.64.49-.26.1-.52.16-.79.16-.4,0-.77-.12-1.1-.37Z"/>
    <path class="st4" d="M85.99,12.3h1.73c.28,0,.54.06.79.19.24.13.44.31.58.54.15.23.22.49.22.78,0,.24-.05.46-.16.67-.11.2-.25.38-.44.52-.19.14-.4.23-.63.28v.02s1.43,2.1,1.43,2.1v.03h-.72l-1.4-2.09h-.81v2.09h-.6v-5.13ZM87.69,14.77c.18,0,.34-.04.5-.12.15-.08.28-.19.37-.34.09-.15.14-.31.14-.49,0-.16-.04-.31-.12-.45-.08-.14-.19-.26-.34-.35-.15-.09-.31-.14-.5-.14h-1.14v1.89h1.1Z"/>
    <path class="st4" d="M90.42,12.3h2.96v.58h-2.36v1.7h2.13v.57h-2.13v1.7h2.36v.58h-2.96v-5.13Z"/>
    <path class="st4" d="M95.47,17.19c-.41-.23-.73-.56-.97-.97-.24-.41-.36-.86-.36-1.36s.12-.95.36-1.36.56-.73.97-.97.85-.35,1.33-.35c.38,0,.73.07,1.06.2.33.13.61.32.82.57l-.44.44c-.16-.2-.37-.35-.62-.46-.25-.11-.52-.16-.82-.16-.36,0-.7.09-1.01.26-.31.17-.56.42-.75.74s-.28.68-.28,1.1.09.78.28,1.1.44.56.76.74.65.26,1.01.26.63-.05.86-.16c.23-.11.43-.25.6-.43.12-.13.22-.29.3-.48.08-.19.12-.4.14-.63h-1.9v-.57h2.46c.02.13.04.26.04.37,0,.32-.05.62-.15.92-.1.3-.26.56-.48.78-.47.51-1.1.77-1.88.77-.48,0-.93-.12-1.33-.35Z"/>
    <path class="st4" d="M100.39,12.3h.6v5.13h-.6v-5.13Z"/>
    <path class="st4" d="M102.69,17.18c-.33-.24-.56-.58-.69-1.02l.58-.24c.08.31.23.56.45.75s.48.29.77.29.55-.08.75-.24.31-.38.31-.66c0-.24-.09-.44-.26-.59-.17-.15-.46-.3-.86-.43l-.32-.11c-.36-.13-.66-.3-.89-.51-.23-.21-.34-.5-.34-.87,0-.24.07-.47.2-.68.13-.21.32-.37.56-.5s.51-.19.8-.19.55.05.77.16.39.24.53.4.22.31.28.47l-.57.24c-.05-.18-.16-.34-.33-.48-.17-.14-.39-.21-.67-.21s-.49.07-.67.22-.28.33-.28.56c0,.2.08.36.24.49.16.13.4.24.72.35l.34.11c.43.16.77.35,1.02.59s.36.56.36.96c0,.33-.08.61-.25.83-.17.22-.38.39-.64.49-.26.1-.52.16-.79.16-.4,0-.77-.12-1.1-.37Z"/>
    <path class="st4" d="M107.56,12.88h-1.44v-.58h3.48v.58h-1.43v4.55h-.61v-4.55Z"/>
    <path class="st4" d="M110.49,12.3h1.73c.28,0,.54.06.79.19.24.13.44.31.58.54.15.23.22.49.22.78,0,.24-.05.46-.16.67-.11.2-.25.38-.44.52-.19.14-.4.23-.63.28v.02s1.43,2.1,1.43,2.1v.03h-.72l-1.4-2.09h-.81v2.09h-.6v-5.13ZM112.18,14.77c.18,0,.34-.04.5-.12.15-.08.28-.19.37-.34.09-.15.14-.31.14-.49,0-.16-.04-.31-.12-.45-.08-.14-.19-.26-.34-.35-.15-.09-.31-.14-.5-.14h-1.14v1.89h1.1Z"/>
    <path class="st4" d="M114.92,12.3h2.96v.58h-2.36v1.7h2.13v.57h-2.13v1.7h2.36v.58h-2.96v-5.13Z"/>
    <path class="st4" d="M118.99,12.3h1.73c.28,0,.54.06.79.19.24.13.44.31.58.54.15.23.22.49.22.78,0,.24-.05.46-.16.67-.11.2-.25.38-.44.52-.19.14-.4.23-.63.28v.02s1.43,2.1,1.43,2.1v.03h-.72l-1.4-2.09h-.81v2.09h-.6v-5.13ZM120.69,14.77c.18,0,.34-.04.5-.12.15-.08.28-.19.37-.34.09-.15.14-.31.14-.49,0-.16-.04-.31-.12-.45-.08-.14-.19-.26-.34-.35-.15-.09-.31-.14-.5-.14h-1.14v1.89h1.1Z"/>
    <path class="st4" d="M124.85,12.3h1.55c.52,0,.98.11,1.37.33.39.22.69.52.9.91.21.39.32.83.32,1.33s-.11.95-.32,1.33c-.21.39-.51.69-.9.91-.39.22-.85.33-1.37.33h-1.55v-5.13ZM126.39,16.85c.61,0,1.09-.17,1.44-.52.36-.35.53-.84.53-1.46s-.18-1.11-.53-1.46c-.35-.35-.84-.52-1.44-.52h-.94v3.97h.94Z"/>
    <path class="st4" d="M130.08,12.3h.6v5.13h-.6v-5.13Z"/>
    <path class="st4" d="M133.11,17.19c-.41-.23-.73-.56-.97-.97-.24-.41-.36-.86-.36-1.36s.12-.95.36-1.36.56-.73.97-.97.85-.35,1.33-.35c.38,0,.73.07,1.06.2.33.13.61.32.82.57l-.44.44c-.16-.2-.37-.35-.62-.46-.25-.11-.52-.16-.82-.16-.36,0-.7.09-1.01.26-.31.17-.56.42-.75.74s-.28.68-.28,1.1.09.78.28,1.1.44.56.76.74.65.26,1.01.26.63-.05.86-.16c.23-.11.43-.25.6-.43.12-.13.22-.29.3-.48.08-.19.12-.4.14-.63h-1.9v-.57h2.46c.02.13.04.26.04.37,0,.32-.05.62-.15.92-.1.3-.26.56-.48.78-.47.51-1.1.77-1.88.77-.48,0-.93-.12-1.33-.35Z"/>
    <path class="st4" d="M139.52,12.3h.6v5.13h-.6v-5.13Z"/>
  </g>
</svg>