<?xml version="1.0" encoding="UTF-8"?>
<svg id="Layer_1" data-name="Layer 1" xmlns="http://www.w3.org/2000/svg" version="1.1" viewBox="0 0 196.89 66.04">
  <path d="M14.8,42.31c2.73,5.46,7.4,8.46,13.18,8.46,4.02,0,7.35-1.76,7.77-4.12.56-2.96-2.68-3.79-10.54-6.29-9.8-3.1-19.7-7.17-17.48-19.79C9.81,8.74,22.75,1.39,35.1,1.39s18.4,5.55,22.24,13.78l-14.06,8.69c-1.76-4.12-5.69-7.26-11.05-7.26-3.01,0-6.2,1.25-6.66,3.93-.51,2.91,2.96,4.35,7.44,5.69,13.46,3.98,22.71,8.51,20.58,20.49-2.27,12.9-16.6,19.33-28.49,19.33S3.93,60.67,0,51.52l14.8-9.2Z" fill="currentColor" stroke-width="0"/>
  <path d="M51.63,52.67c1.62-9.16,11.75-13.5,20.62-13.5,2.63,0,5.27.28,7.49.88v-.14c.56-3.24-1.43-5.69-6.06-5.69s-8.65,2.59-10.91,4.39l-7.03-10.13c3.56-3.38,12.44-8.69,22.11-8.69,5.5,0,9.94,1.71,12.53,5.5,4.21-3.47,9.39-5.5,15.08-5.5,11.84,0,20.3,8.46,18.13,20.76-.32,1.8-.88,3.7-1.71,5.69h-27.05c-.28,4.3,3.1,6.1,6.89,6.1s7.35-1.85,9.85-4.39l8.37,8.97c-2.73,3.47-11.1,9.11-21.64,9.11-6.47,0-11.52-2.4-14.71-6.47-4.12,3.98-9.57,6.47-16.42,6.47-10.68,0-16.88-5.55-15.54-13.37ZM71.48,54.2c3.38,0,6.2-2.36,6.75-5.55-1.11-.46-2.82-.74-4.35-.74-2.87,0-5.37,1.2-5.74,3.33-.32,1.8,1.16,2.96,3.33,2.96ZM107.87,38.2c.51-2.87-1.48-5.46-4.67-5.46s-6.15,2.54-6.94,5.46h11.61Z" fill="currentColor" stroke-width="0"/>
  <path d="M138.6,65.11h-17.76L132.31,0h17.76l-11.47,65.11Z" fill="currentColor" stroke-width="0"/>
  <path d="M146.11,17.53h16.93l3.56,28.44,13.37-28.44h16.93l-24.74,47.58h-17.94l-8.1-47.58Z" fill="currentColor" stroke-width="0"/>
</svg>